<svg width="132" height="28" viewBox="0 0 132 28" fill="none" xmlns="http://www.w3.org/2000/svg">
<path d="M0.879883 27V26.6L1.67988 26.28C2.21318 26.0933 2.55988 25.84 2.71988 25.52C2.90658 25.2 2.99988 24.7733 2.99988 24.24V3.35997C2.99988 2.82667 2.91988 2.39998 2.75988 2.07998C2.59988 1.75998 2.23988 1.50667 1.67988 1.31997L0.879883 0.999975V0.599976H11.1599V0.999975L10.3599 1.31997C9.82658 1.50667 9.46658 1.75998 9.27988 2.07998C9.11988 2.39998 9.03988 2.82667 9.03988 3.35997V24.24C9.03988 24.7733 9.11988 25.2 9.27988 25.52C9.46658 25.8133 9.82658 26.0667 10.3599 26.28L11.1599 26.6V27H0.879883ZM12.8312 27V26.6L13.3912 26.44C14.3245 26.1733 14.7912 25.52 14.7912 24.48V11.96C14.7912 11.3733 14.6978 10.9467 14.5112 10.68C14.3245 10.3867 13.9645 10.1867 13.4312 10.08L12.8312 9.91998V9.51998L19.6712 7.19998L20.0712 7.59998L20.3912 9.99998C21.3245 9.17328 22.3778 8.49327 23.5512 7.95997C24.7245 7.42667 25.8845 7.15998 27.0312 7.15998C28.7912 7.15998 30.1378 7.63998 31.0712 8.59998C32.0312 9.55998 32.5112 11.0267 32.5112 13V24.52C32.5112 25.56 33.0178 26.2133 34.0312 26.48L34.3912 26.6V27H24.9512V26.6L25.4712 26.44C26.4045 26.1467 26.8712 25.4933 26.8712 24.48V11.72C26.8712 10.0133 26.0178 9.15998 24.3112 9.15998C23.1378 9.15998 21.8578 9.74668 20.4712 10.92V24.52C20.4712 25.56 20.9378 26.2133 21.8712 26.48L22.2312 26.6V27H12.8312ZM43.3608 27.6C41.6542 27.6 40.3208 27.1733 39.3608 26.32C38.4275 25.4667 37.9608 24.1067 37.9608 22.24V8.55997H35.2008V8.15998L36.1608 7.99998C36.9875 7.81328 37.6942 7.54668 38.2808 7.19998C38.8942 6.85328 39.4942 6.38667 40.0808 5.79997L43.3608 2.15998H43.7608L43.6408 7.75998H48.1208V8.55997H43.6008V22.96C43.6008 23.8933 43.8008 24.6 44.2008 25.08C44.6275 25.56 45.1608 25.8 45.8008 25.8C46.3608 25.8 46.8542 25.6667 47.2808 25.4C47.7075 25.1067 48.1342 24.72 48.5608 24.24L48.9608 24.64C48.4275 25.5467 47.6942 26.2667 46.7608 26.8C45.8275 27.3333 44.6942 27.6 43.3608 27.6ZM60.1369 7.15998C61.8699 7.15998 63.3499 7.51997 64.5769 8.23997C65.8039 8.93327 66.7369 9.89328 67.3769 11.12C68.0439 12.32 68.3769 13.6933 68.3769 15.24C68.3769 15.5333 68.3639 15.84 68.3369 16.16C68.3099 16.4533 68.2569 16.72 68.1769 16.96H56.2569C56.2839 19.84 56.7899 21.92 57.7769 23.2C58.7899 24.4533 60.2839 25.08 62.2569 25.08C63.5899 25.08 64.6699 24.8667 65.4969 24.44C66.3239 24.0133 67.0969 23.3867 67.8169 22.56L68.2169 22.92C67.3899 24.3867 66.2839 25.5333 64.8969 26.36C63.5369 27.1867 61.8969 27.6 59.9769 27.6C58.0839 27.6 56.4039 27.2 54.9368 26.4C53.4701 25.5733 52.3234 24.4 51.4968 22.88C50.6701 21.36 50.2568 19.5467 50.2568 17.44C50.2568 15.2533 50.7368 13.4 51.6968 11.88C52.6568 10.3333 53.8834 9.15998 55.3768 8.35998C56.8969 7.55998 58.4839 7.15998 60.1369 7.15998ZM60.0169 7.95997C59.2439 7.95997 58.5769 8.19998 58.0169 8.67998C57.4839 9.13328 57.0569 9.95998 56.7369 11.16C56.4439 12.3333 56.2839 14 56.2569 16.16H63.0969C63.3639 13.2533 63.2569 11.16 62.7769 9.87997C62.2969 8.59997 61.3769 7.95997 60.0169 7.95997ZM70.3699 27V26.6L70.9699 26.44C71.5039 26.28 71.8639 26.04 72.0499 25.72C72.2639 25.4 72.3699 24.9867 72.3699 24.48V11.96C72.3699 11.3733 72.2639 10.9467 72.0499 10.68C71.8639 10.3867 71.5039 10.1867 70.9699 10.08L70.3699 9.91998V9.51998L77.2499 7.19998L77.6499 7.59998L78.0099 11.04V11.36C78.3839 10.6133 78.8639 9.93327 79.4499 9.31997C80.0639 8.67997 80.7299 8.15998 81.4499 7.75998C82.1969 7.35998 82.9299 7.15998 83.6499 7.15998C84.6639 7.15998 85.4369 7.43998 85.9699 7.99998C86.5039 8.55998 86.7699 9.26668 86.7699 10.12C86.7699 11.0267 86.5039 11.7333 85.9699 12.24C85.4639 12.72 84.8499 12.96 84.1299 12.96C83.0099 12.96 82.0239 12.4 81.1699 11.28L81.0899 11.2C80.8239 10.8267 80.5169 10.6267 80.1699 10.6C79.8239 10.5467 79.5039 10.7067 79.2099 11.08C78.9439 11.32 78.7169 11.6133 78.5299 11.96C78.3699 12.28 78.2099 12.6533 78.0499 13.08V24.24C78.0499 25.3067 78.5169 25.9733 79.4499 26.24L80.7299 26.6V27H70.3699ZM88.0269 27V26.6L88.5869 26.44C89.5199 26.1733 89.9869 25.52 89.9869 24.48V11.96C89.9869 11.3733 89.8929 10.9467 89.7069 10.68C89.5199 10.3867 89.1599 10.1867 88.6269 10.08L88.0269 9.91998V9.51998L94.8669 7.19998L95.2669 7.59998L95.5869 9.99998C96.5199 9.17328 97.5729 8.49327 98.7469 7.95997C99.9199 7.42667 101.08 7.15998 102.227 7.15998C103.987 7.15998 105.333 7.63998 106.267 8.59998C107.227 9.55998 107.707 11.0267 107.707 13V24.52C107.707 25.56 108.213 26.2133 109.227 26.48L109.587 26.6V27H100.147V26.6L100.667 26.44C101.6 26.1467 102.067 25.4933 102.067 24.48V11.72C102.067 10.0133 101.213 9.15998 99.5069 9.15998C98.3329 9.15998 97.0529 9.74668 95.6669 10.92V24.52C95.6669 25.56 96.1329 26.2133 97.0669 26.48L97.4269 26.6V27H88.0269ZM121.272 27.6C119.245 27.6 117.485 27.1867 115.992 26.36C114.498 25.5067 113.338 24.3067 112.512 22.76C111.712 21.2133 111.312 19.4 111.312 17.32C111.312 15.24 111.738 13.44 112.592 11.92C113.472 10.4 114.658 9.22667 116.152 8.39997C117.672 7.57327 119.378 7.15998 121.272 7.15998C123.165 7.15998 124.858 7.57327 126.352 8.39997C127.845 9.19997 129.018 10.36 129.872 11.88C130.752 13.4 131.192 15.2133 131.192 17.32C131.192 19.4267 130.778 21.2533 129.952 22.8C129.152 24.32 128.005 25.5067 126.512 26.36C125.045 27.1867 123.298 27.6 121.272 27.6ZM121.272 26.8C122.205 26.8 122.952 26.5333 123.512 26C124.072 25.4667 124.472 24.52 124.712 23.16C124.978 21.8 125.112 19.88 125.112 17.4C125.112 14.8933 124.978 12.96 124.712 11.6C124.472 10.24 124.072 9.29328 123.512 8.75998C122.952 8.22668 122.205 7.95997 121.272 7.95997C120.338 7.95997 119.578 8.22668 118.992 8.75998C118.432 9.29328 118.018 10.24 117.752 11.6C117.512 12.96 117.392 14.8933 117.392 17.4C117.392 19.88 117.512 21.8 117.752 23.16C118.018 24.52 118.432 25.4667 118.992 26C119.578 26.5333 120.338 26.8 121.272 26.8Z" fill="#292F36"/>
</svg>
